<svg xmlns="http://www.w3.org/2000/svg" xmlns:xlink="http://www.w3.org/1999/xlink" width="72px" height="71px"><path fill-rule="evenodd"  fill="rgb(246, 122, 12)" d="M33.912,0.054 L71.065,37.207 L70.876,70.735 L0.208,0.067 L33.912,0.054 Z"/><path fill-rule="evenodd"  fill="rgb(255, 255, 255)"
 d="M64.578,48.705 C63.634,49.650 62.634,50.114 61.578,50.096 C60.520,50.080 59.507,49.585 58.534,48.613 L56.865,46.944 C56.703,46.781 56.619,46.608 56.617,46.425 C56.613,46.243 56.693,46.070 56.857,45.907 L61.771,40.992 C61.934,40.830 62.107,40.749 62.290,40.752 C62.473,40.755 62.645,40.838 62.808,41.001 L64.477,42.670 C65.450,43.642 65.944,44.657 65.961,45.713 C65.978,46.770 65.518,47.767 64.578,48.705 ZM63.525,43.488 L62.488,42.451 L58.316,46.624 L59.351,47.660 C60.718,49.026 62.097,49.012 63.490,47.618 C64.879,46.230 64.890,44.853 63.525,43.488 ZM60.519,40.205 C60.354,40.191 60.190,40.102 60.026,39.939 L57.523,37.435 L55.888,39.071 L58.223,41.406 C58.385,41.568 58.476,41.732 58.492,41.895 C58.509,42.057 58.447,42.210 58.306,42.350 C58.172,42.485 58.023,42.544 57.861,42.527 C57.697,42.510 57.534,42.420 57.371,42.257 L55.036,39.922 L53.299,41.659 L55.804,44.162 C55.966,44.325 56.055,44.490 56.069,44.656 C56.083,44.821 56.020,44.974 55.879,45.115 C55.743,45.250 55.594,45.308 55.432,45.292 C55.270,45.275 55.106,45.185 54.943,45.022 L51.900,41.979 C51.738,41.816 51.655,41.643 51.652,41.461 C51.650,41.278 51.728,41.105 51.892,40.942 L56.806,36.028 C56.969,35.865 57.142,35.785 57.325,35.788 C57.507,35.791 57.680,35.873 57.842,36.036 L60.887,39.079 C61.048,39.242 61.139,39.405 61.156,39.568 C61.173,39.731 61.114,39.880 60.979,40.015 C60.839,40.156 60.685,40.219 60.519,40.205 ZM52.878,36.846 C52.322,36.879 51.762,36.699 51.202,36.306 C51.324,36.508 51.398,36.722 51.420,36.947 C51.443,37.172 51.423,37.433 51.361,37.731 L50.957,39.670 C50.923,39.838 50.858,39.970 50.762,40.066 C50.632,40.195 50.475,40.250 50.286,40.230 C50.098,40.210 49.933,40.130 49.793,39.990 C49.703,39.900 49.638,39.793 49.599,39.670 C49.559,39.546 49.554,39.414 49.582,39.273 L50.165,36.449 C50.231,36.157 50.239,35.912 50.185,35.711 C50.132,35.512 50.004,35.311 49.801,35.109 L48.975,34.283 L47.087,36.171 C46.919,36.340 46.737,36.426 46.543,36.428 C46.350,36.431 46.170,36.351 46.008,36.188 C45.846,36.025 45.763,35.845 45.763,35.649 C45.763,35.452 45.848,35.269 46.017,35.101 L50.948,30.170 C51.111,30.006 51.284,29.926 51.466,29.929 C51.650,29.932 51.822,30.015 51.985,30.178 L54.093,32.285 C54.767,32.960 55.129,33.623 55.179,34.275 C55.230,34.927 54.972,35.536 54.404,36.104 C53.944,36.565 53.435,36.812 52.878,36.846 ZM53.097,32.977 L51.681,31.560 L49.801,33.440 L51.217,34.856 C51.628,35.267 52.006,35.490 52.352,35.526 C52.697,35.563 53.030,35.421 53.350,35.101 C53.676,34.775 53.819,34.441 53.775,34.102 C53.734,33.762 53.508,33.387 53.097,32.977 ZM46.674,31.948 C45.871,32.752 45.046,33.155 44.200,33.158 C43.354,33.161 42.527,32.757 41.718,31.948 C40.903,31.134 40.495,30.304 40.495,29.461 C40.495,28.618 40.901,27.793 41.710,26.984 L44.752,23.940 C44.916,23.777 45.094,23.695 45.287,23.692 C45.481,23.689 45.660,23.769 45.823,23.932 C45.986,24.095 46.066,24.273 46.064,24.467 C46.061,24.661 45.978,24.839 45.814,25.002 L42.713,28.104 C42.201,28.616 41.936,29.123 41.917,29.626 C41.896,30.129 42.119,30.614 42.587,31.080 C43.047,31.541 43.530,31.760 44.036,31.737 C44.541,31.715 45.046,31.451 45.553,30.945 L48.656,27.843 C48.818,27.680 48.997,27.597 49.191,27.594 C49.385,27.592 49.563,27.671 49.725,27.835 C49.889,27.997 49.969,28.176 49.966,28.370 C49.964,28.564 49.880,28.743 49.718,28.905 L46.674,31.948 ZM43.244,23.224 L41.710,21.690 L37.157,26.241 C36.995,26.404 36.814,26.486 36.618,26.486 C36.422,26.486 36.241,26.404 36.079,26.241 C35.909,26.073 35.826,25.890 35.826,25.694 C35.826,25.497 35.907,25.318 36.071,25.154 L40.622,20.602 L39.088,19.068 C38.751,18.731 38.730,18.414 39.029,18.116 C39.327,17.818 39.645,17.838 39.981,18.175 L44.137,22.330 C44.475,22.667 44.494,22.985 44.196,23.283 C43.898,23.581 43.581,23.561 43.244,23.224 ZM34.687,23.468 C34.649,23.575 34.592,23.665 34.519,23.738 C34.391,23.867 34.228,23.925 34.035,23.911 C33.841,23.896 33.676,23.822 33.542,23.688 C33.451,23.598 33.391,23.489 33.360,23.363 C33.330,23.236 33.342,23.100 33.399,22.954 L34.022,21.319 L31.055,18.351 L29.420,18.975 C29.273,19.031 29.138,19.044 29.011,19.014 C28.885,18.982 28.773,18.919 28.678,18.823 C28.548,18.694 28.475,18.531 28.460,18.335 C28.441,18.138 28.498,17.975 28.628,17.846 C28.701,17.773 28.790,17.717 28.897,17.677 L36.222,15.005 C36.385,14.944 36.548,14.935 36.711,14.980 C36.873,15.025 37.014,15.107 37.132,15.224 C37.250,15.343 37.332,15.483 37.377,15.646 C37.422,15.809 37.412,15.972 37.351,16.135 L34.687,23.468 ZM32.269,17.880 L34.495,20.105 L35.885,16.489 L32.269,17.880 ZM32.930,12.616 C32.764,12.601 32.600,12.513 32.437,12.350 L29.934,9.846 L28.298,11.482 L30.634,13.817 C30.797,13.980 30.887,14.143 30.904,14.306 C30.919,14.469 30.858,14.620 30.718,14.761 C30.583,14.896 30.434,14.955 30.271,14.938 C30.108,14.921 29.944,14.831 29.782,14.668 L27.447,12.333 L25.711,14.070 L28.214,16.573 C28.377,16.736 28.466,16.900 28.480,17.066 C28.493,17.232 28.430,17.385 28.290,17.525 C28.155,17.660 28.005,17.720 27.843,17.702 C27.681,17.686 27.517,17.596 27.355,17.433 L24.311,14.390 C24.148,14.227 24.065,14.054 24.063,13.871 C24.059,13.689 24.141,13.516 24.303,13.353 L29.218,8.439 C29.380,8.275 29.552,8.196 29.736,8.198 C29.919,8.201 30.091,8.284 30.253,8.447 L33.297,11.490 C33.460,11.653 33.550,11.816 33.567,11.979 C33.584,12.142 33.525,12.291 33.390,12.426 C33.250,12.566 33.097,12.629 32.930,12.616 ZM27.573,7.504 L25.163,5.092 L23.545,6.710 L25.786,8.953 C26.129,9.295 26.153,9.613 25.863,9.906 C25.576,10.192 25.261,10.164 24.918,9.821 L22.676,7.579 L20.586,9.670 C20.422,9.833 20.243,9.917 20.047,9.922 C19.849,9.928 19.669,9.849 19.507,9.686 C19.343,9.523 19.263,9.342 19.267,9.143 C19.269,8.943 19.352,8.762 19.515,8.599 L24.447,3.668 C24.609,3.505 24.782,3.425 24.964,3.428 C25.147,3.430 25.320,3.513 25.484,3.676 L28.441,6.635 C28.784,6.978 28.809,7.295 28.518,7.588 C28.231,7.874 27.917,7.846 27.573,7.504 Z"/></svg>