<svg xmlns="http://www.w3.org/2000/svg" xmlns:xlink="http://www.w3.org/1999/xlink" width="15px" height="24px"><path fill-rule="evenodd" opacity="0.102" fill="rgb(29, 42, 55)"
 d="M7.499,-0.001 C3.363,-0.001 -0.002,3.561 -0.002,7.938 C-0.002,9.701 1.063,12.575 3.250,16.725 C4.798,19.660 6.319,22.108 6.385,22.210 L7.499,23.999 L8.613,22.210 C8.677,22.108 10.200,19.660 11.748,16.725 C13.935,12.575 15.000,9.701 15.000,7.938 C15.000,3.561 11.635,-0.001 7.499,-0.001 ZM7.499,11.999 C5.351,11.999 3.611,10.157 3.611,7.884 C3.611,5.612 5.351,3.769 7.499,3.769 C9.646,3.769 11.387,5.612 11.387,7.884 C11.387,10.157 9.646,11.999 7.499,11.999 Z"/></svg>