<svg xmlns="http://www.w3.org/2000/svg" xmlns:xlink="http://www.w3.org/1999/xlink" width="13px" height="17px"><path fill-rule="evenodd" fill="rgb(255, 255, 255)"
 d="M2.643,9.477 C3.389,8.108 2.405,7.808 2.249,6.816 C1.618,2.762 6.753,-0.007 9.441,2.825 C11.301,4.787 10.075,10.820 7.076,10.193 C4.204,9.595 8.483,4.792 6.192,3.850 C4.328,3.083 3.338,6.193 4.223,7.738 C3.703,10.396 2.587,12.899 3.039,16.231 C4.503,15.127 4.999,13.012 5.403,10.807 C6.140,11.272 6.533,11.755 7.472,11.831 C10.934,12.109 12.869,8.240 12.394,4.668 C11.974,1.502 8.938,-0.110 5.697,0.268 C3.136,0.566 0.582,2.718 0.475,5.794 C0.412,7.672 0.924,9.081 2.643,9.477 Z"/></svg>