<svg xmlns="http://www.w3.org/2000/svg" xmlns:xlink="http://www.w3.org/1999/xlink" width="20px" height="15px"><path fill-rule="evenodd"  fill="rgb(255, 255, 255)" d="M13.411,7.307 L19.967,1.423 L19.967,13.053 L13.411,7.307 ZM1.407,0.581 C1.651,0.345 1.980,0.199 2.342,0.199 L18.601,0.199 C18.965,0.199 19.295,0.343 19.538,0.578 L10.472,8.595 L1.407,0.581 ZM0.976,13.053 L0.976,1.427 L7.532,7.307 L0.976,13.053 ZM10.472,9.995 L12.821,7.873 L19.536,13.813 C19.291,14.048 18.963,14.193 18.601,14.193 L2.342,14.193 C1.978,14.193 1.648,14.048 1.405,13.813 L8.123,7.873 L10.472,9.995 Z"/></svg>