<svg xmlns="http://www.w3.org/2000/svg" xmlns:xlink="http://www.w3.org/1999/xlink" width="17px" height="17px"><path fill-rule="evenodd" fill="rgb(255, 255, 255)"
 d="M16.564,4.130 L14.100,4.130 L14.103,6.513 L13.363,6.489 L13.363,4.130 L10.899,4.130 L10.899,3.344 L13.363,3.344 L13.363,0.723 L14.103,0.723 L14.100,3.344 L16.564,3.344 L16.564,4.130 ZM8.375,9.401 L8.376,9.402 C9.624,10.327 10.027,11.186 10.027,12.620 C10.027,14.408 8.376,16.187 5.388,16.187 C2.766,16.187 0.555,15.068 0.555,13.279 C0.555,11.463 2.572,9.713 5.193,9.713 C5.479,9.713 5.741,9.705 6.012,9.705 C5.652,9.339 5.369,8.891 5.369,8.337 C5.369,8.008 5.470,7.692 5.609,7.412 C5.467,7.422 5.321,7.425 5.172,7.425 C3.018,7.425 1.576,5.818 1.576,3.828 C1.576,1.879 3.567,0.199 5.684,0.199 C6.864,0.199 9.967,0.723 9.967,0.723 L9.348,1.000 L7.852,1.000 C8.844,1.400 9.372,2.614 9.372,3.859 C9.372,4.906 8.820,5.805 8.039,6.445 C7.278,7.069 7.134,7.331 7.134,7.861 C7.134,8.314 7.949,9.083 8.375,9.401 ZM7.675,3.956 C7.464,2.281 6.309,0.937 5.093,0.899 C3.877,0.860 3.062,2.142 3.271,3.818 C3.482,5.493 4.636,6.882 5.854,6.920 C7.068,6.958 7.885,5.631 7.675,3.956 ZM6.867,10.369 C6.510,10.248 6.115,10.176 5.692,10.172 C3.881,10.151 2.256,11.330 2.256,12.747 C2.256,14.191 3.566,15.394 5.378,15.394 C7.925,15.394 8.812,14.265 8.812,12.820 C8.812,12.646 8.792,12.476 8.755,12.310 C8.557,11.491 7.851,11.087 6.867,10.369 Z"/></svg>