<svg xmlns="http://www.w3.org/2000/svg" xmlns:xlink="http://www.w3.org/1999/xlink" width="17px" height="14px"><path fill-rule="evenodd"  fill="rgb(255, 255, 255)" d="M16.352,1.934 C15.762,2.195 15.129,2.373 14.464,2.452 C15.143,2.045 15.664,1.401 15.909,0.634 C15.274,1.010 14.570,1.284 13.822,1.431 C13.222,0.792 12.368,0.394 11.422,0.394 C9.607,0.394 8.137,1.864 8.137,3.679 C8.137,3.937 8.166,4.188 8.221,4.428 C5.490,4.291 3.068,2.983 1.447,0.995 C1.165,1.481 1.003,2.045 1.003,2.647 C1.003,3.787 1.583,4.793 2.465,5.382 C1.926,5.365 1.419,5.217 0.976,4.971 C0.976,4.985 0.976,4.998 0.976,5.012 C0.976,6.604 2.107,7.933 3.612,8.234 C3.335,8.310 3.046,8.350 2.747,8.350 C2.534,8.350 2.328,8.329 2.128,8.291 C2.546,9.596 3.759,10.547 5.197,10.573 C4.073,11.454 2.656,11.979 1.117,11.979 C0.850,11.979 0.589,11.965 0.332,11.934 C1.786,12.866 3.514,13.411 5.369,13.411 C11.415,13.411 14.721,8.403 14.721,4.061 C14.721,3.918 14.718,3.776 14.712,3.635 C15.354,3.172 15.911,2.594 16.352,1.934 Z"/></svg>