<svg xmlns="http://www.w3.org/2000/svg" xmlns:xlink="http://www.w3.org/1999/xlink" width="16px" height="16px"><path fill-rule="evenodd" fill="rgb(255, 255, 255)"
 d="M2.170,-0.002 L13.335,-0.002 C14.395,-0.002 15.262,0.834 15.262,2.051 L15.262,13.936 C15.262,15.152 14.395,15.988 13.335,15.988 L2.170,15.988 C1.109,15.988 0.242,15.152 0.242,13.936 L0.242,2.051 C0.242,0.834 1.109,-0.002 2.170,-0.002 L2.170,-0.002 ZM11.184,1.775 C10.812,1.775 10.508,2.099 10.508,2.495 L10.508,4.218 C10.508,4.614 10.812,4.938 11.184,4.938 L12.882,4.938 C13.254,4.938 13.558,4.614 13.558,4.218 L13.558,2.495 C13.558,2.099 13.254,1.775 12.882,1.775 L11.184,1.775 L11.184,1.775 ZM13.565,6.760 L12.244,6.760 C12.368,7.195 12.436,7.656 12.436,8.132 C12.436,10.792 10.346,12.948 7.766,12.948 C5.189,12.948 3.098,10.792 3.098,8.132 C3.098,7.656 3.166,7.195 3.292,6.760 L1.912,6.760 L1.912,13.515 C1.912,13.864 2.180,14.151 2.508,14.151 L12.968,14.151 C13.296,14.151 13.565,13.864 13.565,13.515 L13.565,6.760 L13.565,6.760 ZM7.766,4.847 C6.101,4.847 4.750,6.240 4.750,7.959 C4.750,9.677 6.101,11.070 7.766,11.070 C9.432,11.070 10.784,9.677 10.784,7.959 C10.784,6.240 9.432,4.847 7.766,4.847 Z"/></svg>