<?xml version="1.0" standalone="no"?>
<!DOCTYPE svg PUBLIC "-//W3C//DTD SVG 20010904//EN"
 "http://www.w3.org/TR/2001/REC-SVG-20010904/DTD/svg10.dtd">
<svg version="1.0" xmlns="http://www.w3.org/2000/svg"
 width="491.000000pt" height="491.000000pt" viewBox="0 0 491.000000 491.000000"
 preserveAspectRatio="xMidYMid meet">
<metadata>
Created by potrace 1.11, written by Peter Selinger 2001-2013
</metadata>
<g transform="translate(0.000000,491.000000) scale(0.100000,-0.100000)"
fill="#000000" stroke="none">
<path d="M2275 4903 c-331 -36 -650 -148 -904 -318 -91 -61 -82 -54 -176 -133
-360 -304 -602 -716 -681 -1157 -25 -139 -29 -186 -29 -350 0 -195 7 -269 40
-421 77 -356 232 -652 497 -949 36 -41 38 -43 243 -280 99 -114 246 -284 328
-377 l147 -169 0 923 0 924 710 0 710 0 0 -41 c1 -22 1 -435 1 -917 0 -483 2
-878 3 -878 2 0 73 79 157 177 85 97 159 181 164 187 6 6 89 101 184 211 96
110 190 218 210 240 73 83 166 202 224 290 60 92 177 320 177 346 0 8 4 19 9
25 18 18 81 242 97 343 3 18 8 43 10 55 25 116 25 471 0 601 -2 11 -7 40 -11
65 -12 74 -13 79 -41 174 -110 382 -340 732 -649 987 -93 76 -196 149 -212
149 -6 0 -62 -55 -124 -122 -63 -67 -153 -162 -200 -212 l-86 -90 22 -45 c95
-190 96 -433 3 -615 -41 -81 -80 -137 -136 -193 -88 -87 -247 -175 -342 -189
-19 -3 -41 -7 -49 -10 -8 -3 -51 -5 -95 -5 -268 -1 -515 149 -634 386 -44 88
-76 225 -76 325 0 52 17 156 33 202 65 190 187 332 356 418 109 56 200 77 322
75 159 -3 292 -49 416 -146 l60 -46 121 125 c67 68 147 151 179 184 l58 59
-63 28 c-145 66 -370 132 -497 147 -31 3 -60 9 -65 11 -9 6 -364 11 -411 6z"/>
<path d="M2365 4388 c-278 -59 -467 -302 -453 -583 15 -292 234 -516 523 -532
282 -16 522 169 581 446 20 94 18 148 -10 266 -6 27 -31 85 -36 85 -3 0 -48
-46 -100 -102 -52 -56 -108 -116 -125 -133 -16 -18 -82 -88 -145 -155 -63 -68
-121 -129 -129 -137 -16 -17 -23 -10 -211 202 -68 77 -137 154 -153 172 l-29
31 56 53 c91 85 90 84 121 46 15 -17 62 -69 103 -115 41 -45 80 -90 86 -98 12
-16 33 3 213 196 39 41 98 104 131 140 34 36 62 67 62 70 1 18 -146 108 -211
129 -79 26 -202 34 -274 19z"/>
<path d="M1947 2418 c-9 -5 -12 -233 -11 -949 l1 -943 88 -103 c49 -56 91
-100 94 -97 10 10 6 2094 -4 2095 -45 4 -159 3 -168 -3z"/>
<path d="M2359 2415 c-1 -5 -2 -541 -3 -1189 -1 -1164 -1 -1180 19 -1198 39
-37 116 -35 151 3 18 20 19 63 19 1205 0 651 -2 1184 -5 1185 -55 5 -180 2
-181 -6z"/>
<path d="M2779 2420 c-4 -20 -3 -2100 1 -2100 3 0 14 10 25 23 60 71 141 163
150 169 12 9 14 1898 1 1905 -11 7 -176 10 -177 3z"/>
</g>
</svg>
